<svg id="SvgjsSvg1001" width="288" height="288" xmlns="http://www.w3.org/2000/svg" version="1.1" xmlns:xlink="http://www.w3.org/1999/xlink" xmlns:svgjs="http://svgjs.com/svgjs"><defs id="SvgjsDefs1002"></defs><g id="SvgjsG1008"><svg xmlns="http://www.w3.org/2000/svg" enable-background="new 0 0 128 128" viewBox="0 0 128 128" width="288" height="288"><path fill="#ffffff" d="M6,104H2c0,9.4,7.6,17,17,17h107V17H21V2h-2C9.6,2,2,9.6,2,19v85L6,104c0-7.2,5.8-13,13-13h2V21h101v96H19   C11.8,117,6,111.2,6,104z M17,87.1c-4.4,0.5-8.3,2.7-11,5.9V19c0-6.5,4.8-11.9,11-12.8V87.1z" class="color3EBBC4 svgShape"></path><path fill="#ffffff" d="M103 29H91v67.5l6 12 6-12V29zM99 33v11h-4V33H99zM97 99.5l-2-4V48h4v47.5L97 99.5zM42 77v4h8L45 108.7l3.9.7L54 81H66l5.1 28.4 3.9-.7L70 81h8v-4h-8.7L67 63.8c3.1-2.2 5-5.9 5-9.8 0-5.9-4.3-10.9-10-11.8V29h-4v13.2c-5.7 1-10 5.9-10 11.8 0 3.9 1.9 7.5 5 9.8L50.7 77H42zM56.2 61c-2.6-1.4-4.2-4.1-4.2-7 0-4.4 3.6-8 8-8s8 3.6 8 8c0 2.9-1.6 5.6-4.2 7l-1.3.7L65.3 77H54.7l2.7-15.3L56.2 61z" class="color3EBBC4 svgShape"></path></svg></g></svg>